# File created by Blade
# Date/Time:  Wed Jan 21 16:02:10 2015
#---------------------------------------------------------
:version 1.10
:name HOM
:units
  mass 1.0
  length 1.000000
  angle deg
:documentation
     Acclaim Skeleton File
:root
   axis xyz
   order TX TY TZ RX RY RZ
   position 0.000000 0.000000 0.000000
   orientation 0 0 0
:bonedata
   begin
      id 1
      name Spine_dum
      direction 0.000000 1.000000 0.000000
      length 7.067664
      axis 0.0 0.0 0.0 xyz
   end
   begin
      id 2
      name LeftUpLeg_dum
      direction 1.000000 0.000000 0.000000
      length 4.013002
      axis 0.0 0.0 0.0 xyz
   end
   begin
      id 3
      name RightUpLeg_dum
      direction -1.000000 0.000000 0.000000
      length 4.013002
      axis 0.0 0.0 0.0 xyz
   end
   begin
      id 4
      name Spine
      direction 0.000000 1.000000 0.000000
      length 0.000000
      axis 0.0 0.0 0.0 xyz
      dof rx ry rz
   end
   begin
      id 5
      name Spine_dum1
      direction 0.000000 1.000000 0.000000
      length 15.039886
      axis 0.0 0.0 0.0 xyz
   end
   begin
      id 6
      name Spine_dum2
      direction 0.000000 1.000000 0.000000
      length 10.530368
      axis 0.0 0.0 0.0 xyz
   end
   begin
      id 7
      name Spine_dum3
      direction 0.000000 1.000000 0.000000
      length 10.530368
      axis 0.0 0.0 0.0 xyz
   end
   begin
      id 8
      name Head
      direction 0.000000 1.000000 0.000000
      length 4.527550
      axis 0.0 0.0 0.0 xyz
      dof rx ry rz
   end
   begin
      id 9
      name LeftShoulder
      direction 1.000000 0.000000 0.000000
      length 7.028855
      axis 0.0 0.0 -90.0 xyz
      dof rx ry rz
   end
   begin
      id 10
      name LeftArm
      direction 1.000000 0.000000 0.000000
      length 10.797705
      axis 0.0 0.0 -90.0 xyz
      dof rx ry rz
   end
   begin
      id 11
      name LeftForeArm
      direction 1.000000 0.000000 0.000000
      length 7.907442
      axis 0.0 0.0 -90.0 xyz
      dof ry rz rx
   end
   begin
      id 12
      name LeftHand
      direction 0.000000 0.000000 0.000000
      length 0.000000
      axis 0.0 0.0 -90.0 xyz
      dof rx ry rz
   end
   begin
      id 13
      name LeftHand_dum1
      direction 0.000000 0.000000 0.000000
      length 0.000000
      axis 0.0 0.0 -90.0 xyz
   end
   begin
      id 14
      name LeftHand_dum2
      direction 1.000000 0.000000 0.000000
      length 3.937000
      axis 0.0 0.0 -90.0 xyz
   end
   begin
      id 15
      name LeftHandThumb1
      direction 0.000000 0.000000 1.000000
      length 3.937000
      axis 0.0 0.0 -90.0 xyz
      dof rx rz ry
   end
   begin
      id 16
      name RightShoulder
      direction -1.000000 0.000000 0.000000
      length 7.028855
      axis 0.0 0.0 90.0 xyz
      dof rx ry rz
   end
   begin
      id 17
      name RightArm
      direction -1.000000 0.000000 0.000000
      length 10.797705
      axis 0.0 0.0 90.0 xyz
      dof rx ry rz
   end
   begin
      id 18
      name RightForeArm
      direction -1.000000 0.000000 0.000000
      length 7.907442
      axis 0.0 0.0 90.0 xyz
      dof ry rz rx
   end
   begin
      id 19
      name RightHand
      direction 0.000000 0.000000 0.000000
      length 0.000000
      axis 0.0 0.0 90.0 xyz
      dof rx ry rz
   end
   begin
      id 20
      name RightHand_dum1
      direction 0.000000 0.000000 0.000000
      length 0.000000
      axis 0.0 0.0 90.0 xyz
   end
   begin
      id 21
      name RightHand_dum2
      direction -1.000000 0.000000 0.000000
      length 3.937000
      axis 0.0 0.0 90.0 xyz
   end
   begin
      id 22
      name RightHandThumb1
      direction 0.000000 0.000000 1.000000
      length 3.937000
      axis 0.0 0.0 90.0 xyz
      dof rx rz ry
   end
   begin
      id 23
      name LeftUpLeg
      direction 0.000000 -1.000000 0.000000
      length 16.899758
      axis 0.0 0.0 0.0 xyz
      dof rx ry rz
   end
   begin
      id 24
      name LeftLeg
      direction 0.000000 -1.000000 0.000000
      length 17.389183
      axis 0.0 0.0 0.0 xyz
      dof rx ry rz
   end
   begin
      id 25
      name LeftFoot
      direction 0.000000 -0.258819 0.965926
      length 4.924528
      axis 15.0 0.0 0.0 xyz
      dof rx ry rz
   end
   begin
      id 26
      name LeftToeBase
      direction 0.000000 0.000000 1.000000
      length 2.952750
      axis 0.0 0.0 0.0 xyz
      dof rx ry rz
   end
   begin
      id 27
      name RightUpLeg
      direction 0.000000 -1.000000 0.000000
      length 16.899758
      axis 0.0 0.0 0.0 xyz
      dof rx ry rz
   end
   begin
      id 28
      name RightLeg
      direction 0.000000 -1.000000 0.000000
      length 17.389183
      axis 0.0 0.0 0.0 xyz
      dof rx ry rz
   end
   begin
      id 29
      name RightFoot
      direction 0.000000 -0.258819 0.965926
      length 4.924528
      axis 15.0 0.0 0.0 xyz
      dof rx ry rz
   end
   begin
      id 30
      name RightToeBase
      direction 0.000000 0.000000 1.000000
      length 2.952750
      axis 0.0 0.0 0.0 xyz
      dof rx ry rz
   end
:hierarchy
   begin
      root Spine_dum LeftUpLeg_dum RightUpLeg_dum
      Spine_dum Spine
      LeftUpLeg_dum LeftUpLeg
      RightUpLeg_dum RightUpLeg
      Spine Spine_dum1 Spine_dum2 Spine_dum3
      Spine_dum1 Head
      Spine_dum2 LeftShoulder
      Spine_dum3 RightShoulder
      LeftShoulder LeftArm
      LeftArm LeftForeArm
      LeftForeArm LeftHand
      LeftHand LeftHand_dum1 LeftHand_dum2
      LeftHand_dum1 LeftHandThumb1
      RightShoulder RightArm
      RightArm RightForeArm
      RightForeArm RightHand
      RightHand RightHand_dum1 RightHand_dum2
      RightHand_dum1 RightHandThumb1
      LeftUpLeg LeftLeg
      LeftLeg LeftFoot
      LeftFoot LeftToeBase
      RightUpLeg RightLeg
      RightLeg RightFoot
      RightFoot RightToeBase
   end

# File created by Blade
# Date/Time:  Wed Jan 21 16:02:01 2015
# Frame Rate: 120.000 fps
#------------------------------------------------------
:FULLY-SPECIFIED
:DEGREES
216
root 21.564155 33.377074 -15.675557 -178.378278 -10.934592 -188.595050
Spine -3.309230 -2.000824 -8.583930
Head 44.465993 -1.372573 0.348525
LeftShoulder -15.508999 -16.456341 -1.579246
LeftArm -22.383389 10.727173 -71.000418
LeftForeArm 1.404232 0.000000 4.520859
LeftHand -1.571484 0.000000 0.337654
LeftHandThumb1 -26.253704 0.000000 33.147579
RightShoulder -16.954327 -21.664191 8.117111
RightArm 7.604900 -2.106347 63.370108
RightForeArm -27.526460 -0.000000 13.255200
RightHand -3.515409 -0.000000 -1.295870
RightHandThumb1 -24.326973 -0.000000 -32.862282
LeftUpLeg 18.345203 0.144931 -21.131081
LeftLeg -1.829766 -0.000000 0.000000
LeftFoot -28.874963 17.057052 -11.283004
LeftToeBase 19.651317 -0.000000 -0.000000
RightUpLeg -22.852255 -12.595551 18.561717
RightLeg 3.422557 -0.000000 -0.000000
RightFoot 7.050747 -28.740354 -3.878949
RightToeBase 13.796899 -0.000000 -0.000000
217
root 21.496039 33.340911 -15.773702 -178.382077 -10.897317 -188.525544
Spine -3.539532 -1.955603 -8.371664
Head 44.709912 -1.481122 0.133711
LeftShoulder -15.656428 -16.476971 -1.628501
LeftArm -22.332040 10.574796 -70.865675
LeftForeArm 1.523536 -0.000000 4.669955
LeftHand -1.530336 -0.000000 0.471369
LeftHandThumb1 -26.253704 0.000000 33.147579
RightShoulder -16.973785 -21.732143 8.062084
RightArm 7.407292 -2.143254 63.331638
RightForeArm -27.532197 -0.000000 13.144528
RightHand -3.419121 -0.000000 -1.172958
RightHandThumb1 -24.326973 -0.000000 -32.862282
LeftUpLeg 18.445510 -0.028493 -21.208043
LeftLeg -1.680973 -0.000000 0.000000
LeftFoot -29.128879 17.127757 -11.338488
LeftToeBase 19.618750 -0.000000 -0.000000
RightUpLeg -22.346382 -12.597102 18.689622
RightLeg 2.707229 -0.000000 -0.000000
RightFoot 6.878746 -28.794449 -4.532514
RightToeBase 14.642696 -0.000000 -0.000000
218
root 21.425304 33.306226 -15.867704 -178.358581 -10.813635 -188.459286
Spine -3.793834 -1.894885 -8.136321
Head 44.925416 -1.525519 -0.130154
LeftShoulder -15.803272 -16.515371 -1.729030
LeftArm -22.326437 10.547341 -70.764143
LeftForeArm 1.784489 0.000000 4.850240
LeftHand -1.480086 -0.000000 0.408351
LeftHandThumb1 -26.253704 0.000000 33.147579
RightShoulder -16.898684 -21.698067 7.923737
RightArm 7.098521 -2.099943 63.342713
RightForeArm -27.541802 -0.000000 13.019621
RightHand -3.468299 -0.000000 -1.225603
RightHandThumb1 -24.326973 -0.000000 -32.862282
LeftUpLeg 18.475890 -0.187485 -21.301844
LeftLeg -1.473625 -0.000000 0.000000
LeftFoot -29.401798 17.187958 -11.437289
LeftToeBase 19.555769 -0.000000 -0.000000
RightUpLeg -21.850451 -12.354529 18.713457
RightLeg 1.988662 -0.000000 -0.000000
RightFoot 6.500889 -29.224101 -4.660384
RightToeBase 15.194835 -0.000000 -0.000000
219
root 21.356001 33.277126 -15.948369 -178.270609 -10.736736 -188.392750
Spine -4.079181 -1.820071 -7.898806
Head 45.122603 -1.547806 -0.361952
LeftShoulder -15.891357 -16.549671 -1.882824
LeftArm -22.308779 10.533069 -70.634916
LeftForeArm 1.623488 -0.000000 5.078736
LeftHand -1.443994 -0.000000 0.420066
LeftHandThumb1 -26.253704 0.000000 33.147579
RightShoulder -16.905134 -21.655287 7.839053
RightArm 6.891754 -2.179453 63.305931
RightForeArm -27.390804 -0.000000 12.894558
RightHand -3.496544 -0.000000 -1.064694
RightHandThumb1 -24.326973 -0.000000 -32.862282
LeftUpLeg 18.366437 -0.280247 -21.366236
LeftLeg -1.156849 -0.000000 0.000000
LeftFoot -29.672671 17.150015 -11.538558
LeftToeBase 19.510705 -0.000000 -0.000000
RightUpLeg -21.438487 -11.949749 18.674860
RightLeg 1.307343 -0.000000 -0.000000
RightFoot 6.176115 -30.003933 -4.555931
RightToeBase 14.795473 -0.000000 -0.000000
220
root 21.283838 33.244853 -16.038849 -178.196273 -10.503725 -188.276324
Spine -4.403488 -1.669650 -7.588355
Head 45.315405 -1.564803 -0.678740
LeftShoulder -16.050970 -16.587062 -1.980457
LeftArm -22.348931 10.475075 -70.581206
LeftForeArm 1.727423 0.000000 5.293951
LeftHand -1.411606 -0.000000 0.488245
LeftHandThumb1 -26.253704 0.000000 33.147579
RightShoulder -16.855745 -21.575409 7.643724
RightArm 6.630493 -2.139454 63.347053
RightForeArm -27.349663 -0.000000 12.818179
RightHand -3.371659 -0.000000 -0.863481
RightHandThumb1 -24.326973 -0.000000 -32.862282
LeftUpLeg 18.258708 -0.234839 -21.390819
LeftLeg -0.876559 -0.000000 0.000000
LeftFoot -29.952967 17.103261 -11.653939
LeftToeBase 19.393290 -0.000000 -0.000000
RightUpLeg -21.003697 -11.322558 18.601301
RightLeg 0.737178 -0.000000 -0.000000
RightFoot 5.880307 -30.575091 -4.803030
RightToeBase 14.934120 -0.000000 -0.000000
221
root 21.209983 33.215883 -16.121734 -178.127306 -10.244179 -188.172300
Spine -4.688985 -1.509122 -7.276772
Head 45.440836 -1.475580 -0.946356
LeftShoulder -16.200189 -16.592402 -2.130246
LeftArm -22.290607 10.348100 -70.461053
LeftForeArm 1.595167 -0.000000 5.453556
LeftHand -1.337526 0.000000 0.619231
LeftHandThumb1 -26.253704 0.000000 33.147579
RightShoulder -16.763127 -21.571040 7.443633
RightArm 6.471131 -2.018488 63.413137
RightForeArm -27.320623 -0.000000 12.752258
RightHand -3.438017 0.000000 -0.837163
RightHandThumb1 -24.326973 -0.000000 -32.862282
LeftUpLeg 18.110378 -0.171507 -21.435429
LeftLeg -0.543365 -0.000000 0.000000
LeftFoot -30.222240 17.041954 -11.812517
LeftToeBase 19.332519 -0.000000 -0.000000
RightUpLeg -20.620556 -10.693878 18.486931
RightLeg 0.295542 -0.000000 -0.000000
RightFoot 5.469957 -30.894742 -4.901213
RightToeBase 15.131173 -0.000000 -0.000000
222
root 21.134848 33.187714 -16.207455 -178.063760 -10.003976 -188.013711
Spine -4.975433 -1.395165 -6.875085
Head 45.568046 -1.392598 -1.288361
LeftShoulder -16.302155 -16.705473 -2.286847
LeftArm -22.422372 10.136463 -70.349296
LeftForeArm 1.641991 -0.000000 5.665143
LeftHand -1.283387 0.000000 0.307346
LeftHandThumb1 -26.253704 0.000000 33.147579
RightShoulder -16.680584 -21.476603 7.175450
RightArm 6.275358 -1.922683 63.491940
RightForeArm -27.330384 -0.000000 12.693217
RightHand -3.405224 0.000000 -0.815355
RightHandThumb1 -24.326973 -0.000000 -32.862282
LeftUpLeg 17.931410 -0.004093 -21.387669
LeftLeg -0.137308 -0.000000 0.000000
LeftFoot -30.522734 16.858927 -11.924059
LeftToeBase 19.325644 -0.000000 -0.000000
RightUpLeg -20.288312 -10.217326 18.452681
RightLeg -0.045639 -0.000000 0.000000
RightFoot 4.843998 -30.948223 -4.765254
RightToeBase 15.876621 -0.000000 -0.000000
